<svg xmlns="http://www.w3.org/2000/svg" viewBox="0 0 512 512">
  <!-- Background -->
  <rect width="512" height="512" rx="112" fill="#0b0b12"/>

  <!-- Outer ring -->
  <circle cx="256" cy="256" r="200" fill="none" stroke="#d4a843" stroke-width="6" stroke-dasharray="12 6" opacity="0.35"/>

  <!-- Inner ring -->
  <circle cx="256" cy="256" r="148" fill="none" stroke="#d4a843" stroke-width="2" opacity="0.2"/>

  <!-- Compass cross lines -->
  <line x1="256" y1="80" x2="256" y2="432" stroke="#d4a843" stroke-width="1.5" opacity="0.15"/>
  <line x1="80" y1="256" x2="432" y2="256" stroke="#d4a843" stroke-width="1.5" opacity="0.15"/>

  <!-- Compass rose N -->
  <polygon points="256,108 244,156 256,148 268,156" fill="#d4a843" opacity="0.9"/>
  <!-- Compass rose S -->
  <polygon points="256,404 244,356 256,364 268,356" fill="#d4a843" opacity="0.4"/>
  <!-- Compass rose E -->
  <polygon points="404,256 356,244 364,256 356,268" fill="#d4a843" opacity="0.4"/>
  <!-- Compass rose W -->
  <polygon points="108,256 156,244 148,256 156,268" fill="#d4a843" opacity="0.4"/>

  <!-- Map pin shape -->
  <path d="M256,168 C226,168 202,192 202,222 C202,262 256,328 256,328 C256,328 310,262 310,222 C310,192 286,168 256,168 Z"
        fill="#d4a843" opacity="0.95"/>

  <!-- Pin inner circle (hole) -->
  <circle cx="256" cy="220" r="20" fill="#0b0b12"/>

  <!-- Center dot glow -->
  <circle cx="256" cy="256" r="6" fill="#d4a843" opacity="0.6"/>

  <!-- Stars scatter -->
  <circle cx="150" cy="145" r="2.5" fill="#d4a843" opacity="0.5"/>
  <circle cx="370" cy="130" r="1.8" fill="#d4a843" opacity="0.4"/>
  <circle cx="390" cy="370" r="2.2" fill="#d4a843" opacity="0.45"/>
  <circle cx="130" cy="360" r="1.5" fill="#d4a843" opacity="0.35"/>
  <circle cx="175" cy="390" r="1.2" fill="#d4a843" opacity="0.3"/>
  <circle cx="340" cy="400" r="1.8" fill="#d4a843" opacity="0.4"/>
  <circle cx="100" cy="240" r="1.5" fill="#d4a843" opacity="0.25"/>
  <circle cx="415" cy="200" r="1.2" fill="#d4a843" opacity="0.3"/>
</svg>
